<svg width="49" height="49" viewBox="0 0 49 49" fill="none" xmlns="http://www.w3.org/2000/svg">
<path d="M35.3688 41.9999L31.9382 37.6195L28.7179 35.4691C26.6149 36.3087 23.7701 35.1302 23.4819 34.3878C22.3582 35.5038 19.4778 35.5808 18.2401 35.5808C15.1824 35.5808 12.9984 33.6285 12.6261 30.8288C12.0768 30.9293 11.5103 30.9534 10.9362 30.8915C7.2136 30.4906 4.58056 26.6403 5.05533 22.2916C5.37886 19.328 7.06224 16.8983 9.27995 15.7777C9.25583 15.2944 9.30911 14.7876 9.45088 14.2798C10.0354 12.187 11.8921 10.8715 13.5977 11.3415C13.6307 11.3506 13.6627 11.3613 13.6951 11.3716C15.1548 9.8155 17.4113 8.81653 19.9445 8.81506C20.9765 8.81445 21.9629 8.97946 22.8683 9.28026C23.595 8.5585 24.4902 8.09978 25.4857 8.01434C26.7185 7.90861 27.8991 8.393 28.8624 9.2838C28.8828 9.26816 28.9045 9.2541 28.9253 9.23895H28.9231C28.9231 9.23895 29.1937 8.961 29.8594 8.7405C30.4257 8.53247 31.0527 8.44556 31.7114 8.47526C31.7149 8.47526 31.7182 8.47526 31.7216 8.47526C33.7794 8.47526 35.5011 9.61003 36.6822 10.7027C36.8858 10.8849 37.0856 11.0762 37.279 11.2792C37.6783 11.6981 38.0315 12.1383 38.3382 12.5906C38.3853 12.6585 38.4095 12.696 38.4095 12.696C40.5888 12.696 42.1614 14.3189 42.8774 16.2805C43.1976 17.0739 43.3357 17.8932 43.3093 18.684C43.3093 18.684 46.6624 19.8436 46.6624 22.9419C46.8877 24.0735 46.7696 25.2083 46.3584 26.1952C46.385 26.2505 46.4111 26.3061 46.4363 26.3626C47.6859 29.1632 46.7883 32.2747 44.4314 33.3121C44.3021 33.3691 44.1709 33.4178 44.0385 33.46C44.0385 36.7688 40.2238 36.6815 40.2238 36.6815L44.276 42L40.0416 41.9719C40.0416 41.9719 32.2227 34.0088 32.2227 28.0447C32.2227 27.6307 32.796 26.721 33.613 26.721C34.8441 26.721 34.8778 27.9186 35.2789 27.9186C36.3846 28.2108 36.9096 27.1551 37.2754 25.8993C37.4658 25.1885 37.7704 23.6208 36.5838 23.3072C35.079 22.9094 34.967 23.5125 34.3576 23.3383C34.1257 23.277 33.9343 22.5687 34.1209 21.8722C34.7552 19.5044 36.4008 17.1782 36.4008 17.1782C35.1535 16.2787 34.3558 15.6279 31.8424 14.9636C30.9396 14.725 30.1333 14.9116 30.0213 15.3293C29.8145 16.1007 30.4142 16.6857 30.2966 17.125C30.0726 17.9607 29.9233 18.5179 27.5899 17.901C26.0041 17.4819 25.4379 16.793 25.6475 16.0109C25.8743 15.1644 26.5962 15.057 26.7943 14.3176C26.9292 13.8141 26.3676 13.5394 24.8033 13.1259C23.5951 12.8065 21.6775 12.6748 20.6398 13.058C20.6398 13.058 21.2299 16.5736 20.8534 17.979C20.5907 18.9594 19.7951 19.4891 19.2773 19.3522C18.0757 19.0347 18.4015 18.4801 17.6679 18.2863C16.6323 18.0126 15.8991 18.5071 15.4632 20.1339C15.1431 21.3285 15.0633 22.5751 15.9694 22.8147C17.2279 23.1474 17.6817 22.5502 18.1049 22.6622C18.5723 22.7857 18.8569 23.4192 18.7057 23.9836C18.1755 25.9621 17.3517 27.4927 16.2385 28.9666C17.9883 30.0631 19.2454 30.771 20.9265 31.2153C21.6258 31.4001 22.3804 31.2211 22.4694 30.8889C22.7325 29.9067 21.8641 30.0443 22.221 28.7121C22.4019 28.0371 23.554 27.7106 25.0084 28.0951C26.2436 28.4216 27.1303 29.1073 26.9016 29.9608C26.7323 30.5929 25.8394 30.965 25.7093 31.4507" stroke="#FFFDFD" stroke-width="1.568" stroke-linecap="round" stroke-linejoin="round"/>
</svg>
