<svg width="12" height="11" viewBox="0 0 12 11" fill="none" xmlns="http://www.w3.org/2000/svg">
<path d="M4.33333 0C3.71042 0 3.19375 0.427083 3.04583 1.00417C3.02917 1.00417 3.01667 1 3 1C2.26458 1 1.66667 1.59792 1.66667 2.33333C1.66667 2.43333 1.67917 2.53125 1.70208 2.625C1.09375 2.875 0.666667 3.47083 0.666667 4.16667C0.666667 4.42917 0.733333 4.67292 0.839583 4.89375C0.339583 5.18125 0 5.71458 0 6.33333C0 7.02708 0.425 7.62292 1.02917 7.87292C1.01042 7.96875 1 8.06667 1 8.16667C1 8.99583 1.67083 9.66667 2.5 9.66667C2.58542 9.66667 2.66875 9.65625 2.75 9.64167C2.95 10.2354 3.50417 10.6667 4.16667 10.6667C4.99583 10.6667 5.66667 9.99583 5.66667 9.16667V1.33333C5.66667 0.597917 5.06875 0 4.33333 0ZM12 6.33333C12 5.71458 11.6604 5.18125 11.1604 4.89375C11.2687 4.67292 11.3333 4.42917 11.3333 4.16667C11.3333 3.47083 10.9062 2.875 10.2979 2.625C10.3187 2.53125 10.3333 2.43333 10.3333 2.33333C10.3333 1.59792 9.73542 1 9 1C8.98333 1 8.96875 1.00417 8.95417 1.00417C8.80625 0.427083 8.28958 0 7.66667 0C6.93125 0 6.33333 0.595833 6.33333 1.33333V9.16667C6.33333 9.99583 7.00417 10.6667 7.83333 10.6667C8.49583 10.6667 9.05 10.2354 9.25 9.64167C9.33125 9.65625 9.41458 9.66667 9.5 9.66667C10.3292 9.66667 11 8.99583 11 8.16667C11 8.06667 10.9896 7.96875 10.9708 7.87292C11.575 7.62292 12 7.02708 12 6.33333Z" fill="#E05846"/>
</svg>
