<svg width="120" height="120" viewBox="0 0 120 120" fill="none" xmlns="http://www.w3.org/2000/svg">
<mask id="mask0_6055_92748" style="mask-type:alpha" maskUnits="userSpaceOnUse" x="0" y="0" width="120" height="120">
<circle cx="60" cy="60" r="60" fill="#F1EDEA"/>
</mask>
<g mask="url(#mask0_6055_92748)">
<path d="M60 70C53.125 70 47.2396 67.5521 42.3437 62.6562C37.4479 57.7604 35 51.875 35 45C35 38.125 37.4479 32.2396 42.3437 27.3438C47.2396 22.4479 53.125 20 60 20C66.875 20 72.7604 22.4479 77.6562 27.3438C82.5521 32.2396 85 38.125 85 45C85 51.875 82.5521 57.7604 77.6562 62.6562C72.7604 67.5521 66.875 70 60 70ZM10 107.5V102.5C10 98.9583 10.9125 95.7042 12.7375 92.7375C14.5625 89.7708 16.9833 87.5042 20 85.9375C26.4583 82.7083 33.0208 80.2875 39.6875 78.675C46.3542 77.0625 53.125 76.2542 60 76.25C66.875 76.2458 73.6458 77.0542 80.3125 78.675C86.9792 80.2958 93.5417 82.7167 100 85.9375C103.021 87.5 105.444 89.7667 107.269 92.7375C109.094 95.7083 110.004 98.9625 110 102.5V107.5C110 110.937 108.777 113.881 106.331 116.331C103.885 118.781 100.942 120.004 97.5 120H22.5C19.0625 120 16.1208 118.777 13.675 116.331C11.2292 113.885 10.0042 110.942 10 107.5Z" fill="#C3BCB5"/>
</g>
</svg>
