<svg width="20" height="20" viewBox="0 0 20 20" fill="none" xmlns="http://www.w3.org/2000/svg">
<path d="M15.8334 6.66663C15.139 6.66663 14.5487 6.42357 14.0626 5.93746C13.5765 5.45135 13.3334 4.86107 13.3334 4.16663C13.3334 3.47218 13.5765 2.8819 14.0626 2.39579C14.5487 1.90968 15.139 1.66663 15.8334 1.66663C16.5279 1.66663 17.1181 1.90968 17.6042 2.39579C18.0904 2.8819 18.3334 3.47218 18.3334 4.16663C18.3334 4.86107 18.0904 5.45135 17.6042 5.93746C17.1181 6.42357 16.5279 6.66663 15.8334 6.66663ZM3.33341 16.6666C2.87508 16.6666 2.48272 16.5034 2.15633 16.177C1.82994 15.8507 1.66675 15.4583 1.66675 15V4.99996C1.66675 4.54163 1.82994 4.14926 2.15633 3.82288C2.48272 3.49649 2.87508 3.33329 3.33341 3.33329H11.7501C11.6945 3.61107 11.6667 3.88885 11.6667 4.16663C11.6667 4.4444 11.6945 4.72218 11.7501 4.99996C11.8473 5.4444 12.007 5.8576 12.2292 6.23954C12.4515 6.62149 12.7223 6.95829 13.0417 7.24996L10.0001 9.16663L3.33341 4.99996V6.66663L10.0001 10.8333L14.3959 8.08329C14.632 8.16663 14.8681 8.22913 15.1042 8.27079C15.3404 8.31246 15.5834 8.33329 15.8334 8.33329C16.2779 8.33329 16.7154 8.26385 17.1459 8.12496C17.5765 7.98607 17.9723 7.77774 18.3334 7.49996V15C18.3334 15.4583 18.1702 15.8507 17.8438 16.177C17.5174 16.5034 17.1251 16.6666 16.6667 16.6666H3.33341Z" fill="#FFFDFD"/>
</svg>
