<svg width="9" height="12" viewBox="0 0 9 12" fill="none" xmlns="http://www.w3.org/2000/svg">
<path fill-rule="evenodd" clip-rule="evenodd" d="M0 4.125C0 1.918 1.668 0 4.375 0C7.082 0 8.75 1.918 8.75 4.125C8.75 6.4505 7.263 7.631 6.6065 8.0375C6.57406 8.05704 6.54665 8.08391 6.52647 8.11595C6.50628 8.14798 6.49388 8.18431 6.49025 8.222C6.4345 9.1755 6.14425 9.9395 5.63175 10.4675C5.1155 10.9992 4.4145 11.25 3.625 11.25C2.72225 11.25 2.0555 10.917 1.62675 10.2475C1.2215 9.615 1.05775 8.7245 1.01325 7.66625C0.99825 7.31175 0.886 6.9565 0.70675 6.62375C0.405 6.06425 0 5.131 0 4.125ZM2.5625 4.375C2.5625 3.44375 3.27075 2.5625 4.375 2.5625C4.911 2.5625 5.2865 2.79875 5.54075 3.1375C5.8045 3.4895 5.9375 3.9565 5.9375 4.375C5.9375 5.239 5.37325 5.723 4.9865 5.9555C4.676 6.14175 4.45375 6.48575 4.45175 6.876C4.449 7.47175 4.30175 7.79225 4.15425 7.959C4.01175 8.1205 3.825 8.1875 3.625 8.1875C3.37925 8.1875 3.207 8.11925 3.08725 8.0145C2.966 7.9085 2.8565 7.72825 2.8065 7.428C2.78614 7.31473 2.72197 7.21405 2.62789 7.14776C2.53382 7.08148 2.41741 7.05493 2.3039 7.07387C2.19038 7.09281 2.0889 7.15571 2.02144 7.24895C1.95399 7.34219 1.92598 7.45826 1.9435 7.572C2.0185 8.022 2.2035 8.404 2.511 8.673C2.81975 8.943 3.21 9.0625 3.625 9.0625C4.0315 9.0625 4.47375 8.91875 4.81 8.5385C5.14175 8.163 5.32325 7.61025 5.32675 6.88025C5.327 6.8235 5.364 6.74925 5.43675 6.70525C5.9345 6.4065 6.8125 5.69025 6.8125 4.375C6.8125 3.7935 6.633 3.1355 6.24075 2.6125C5.83825 2.07625 5.214 1.6875 4.375 1.6875C2.7295 1.6875 1.6875 3.0205 1.6875 4.375C1.6875 4.49103 1.73359 4.60231 1.81564 4.68436C1.89769 4.76641 2.00897 4.8125 2.125 4.8125C2.24103 4.8125 2.35231 4.76641 2.43436 4.68436C2.51641 4.60231 2.5625 4.49103 2.5625 4.375Z" fill="#E05846"/>
</svg>
