<svg width="20" height="20" viewBox="0 0 20 20" fill="none" xmlns="http://www.w3.org/2000/svg">
<path d="M9.99992 9.99996C10.4583 9.99996 10.8506 9.83677 11.177 9.51038C11.5034 9.18399 11.6666 8.79163 11.6666 8.33329C11.6666 7.87496 11.5034 7.4826 11.177 7.15621C10.8506 6.82982 10.4583 6.66663 9.99992 6.66663C9.54158 6.66663 9.14922 6.82982 8.82284 7.15621C8.49645 7.4826 8.33325 7.87496 8.33325 8.33329C8.33325 8.79163 8.49645 9.18399 8.82284 9.51038C9.14922 9.83677 9.54158 9.99996 9.99992 9.99996ZM9.99992 18.3333C7.76381 16.4305 6.09367 14.6632 4.9895 13.0312C3.88534 11.3993 3.33325 9.88885 3.33325 8.49996C3.33325 6.41663 4.00339 4.7569 5.34367 3.52079C6.68395 2.28468 8.23603 1.66663 9.99992 1.66663C11.7638 1.66663 13.3159 2.28468 14.6562 3.52079C15.9964 4.7569 16.6666 6.41663 16.6666 8.49996C16.6666 9.88885 16.1145 11.3993 15.0103 13.0312C13.9062 14.6632 12.236 16.4305 9.99992 18.3333Z" fill="#FFFDFD"/>
</svg>
