<svg width="3" height="21" viewBox="0 0 3 21" fill="none" xmlns="http://www.w3.org/2000/svg">
<g clip-path="url(#clip0_431_1420)">
<path d="M0.5 15.25C0.5 14.9185 0.631696 14.6005 0.866117 14.3661C1.10054 14.1317 1.41848 14 1.75 14C2.08152 14 2.39946 14.1317 2.63388 14.3661C2.8683 14.6005 3 14.9185 3 15.25C3 15.5815 2.8683 15.8995 2.63388 16.1339C2.39946 16.3683 2.08152 16.5 1.75 16.5C1.41848 16.5 1.10054 16.3683 0.866117 16.1339C0.631696 15.8995 0.5 15.5815 0.5 15.25ZM0.5 10.25C0.5 9.91848 0.631696 9.60054 0.866117 9.36612C1.10054 9.1317 1.41848 9 1.75 9C2.08152 9 2.39946 9.1317 2.63388 9.36612C2.8683 9.60054 3 9.91848 3 10.25C3 10.5815 2.8683 10.8995 2.63388 11.1339C2.39946 11.3683 2.08152 11.5 1.75 11.5C1.41848 11.5 1.10054 11.3683 0.866117 11.1339C0.631696 10.8995 0.5 10.5815 0.5 10.25ZM0.5 5.25C0.5 4.91848 0.631696 4.60054 0.866117 4.36612C1.10054 4.1317 1.41848 4 1.75 4C2.08152 4 2.39946 4.1317 2.63388 4.36612C2.8683 4.60054 3 4.91848 3 5.25C3 5.58152 2.8683 5.89946 2.63388 6.13388C2.39946 6.3683 2.08152 6.5 1.75 6.5C1.41848 6.5 1.10054 6.3683 0.866117 6.13388C0.631696 5.89946 0.5 5.58152 0.5 5.25Z" fill="black"/>
</g>
<defs>
<clipPath id="clip0_431_1420">
<rect width="2.5" height="20.5" fill="white" transform="translate(0.5)"/>
</clipPath>
</defs>
</svg>
