<svg width="12" height="12" viewBox="0 0 12 12" fill="none" xmlns="http://www.w3.org/2000/svg">
<g clip-path="url(#clip0_1_23)">
<path d="M2.87248 0.75C2.87248 0.551088 2.9515 0.360322 3.09215 0.21967C3.2328 0.0790176 3.42357 0 3.62248 0L5.12248 0C5.32139 0 5.51216 0.0790176 5.65281 0.21967C5.79346 0.360322 5.87248 0.551088 5.87248 0.75V0.93375C5.39091 1.14133 4.99698 1.51059 4.75873 1.97775C4.34427 1.95613 3.93191 2.04956 3.56725 2.2477C3.20259 2.44585 2.89984 2.741 2.69248 3.1005L1.94248 4.3995C1.73498 4.75886 1.63091 5.1686 1.64176 5.58342C1.65262 5.99824 1.77798 6.40198 2.00398 6.75C1.80707 7.05329 1.68615 7.39956 1.65148 7.7595C1.49707 7.79129 1.33657 7.77362 1.19278 7.70899C1.04899 7.64437 0.929217 7.53608 0.850479 7.3995L0.100479 6.1005C0.00102763 5.92824 -0.0259233 5.72353 0.0255551 5.5314C0.0770335 5.33927 0.202725 5.17546 0.374979 5.076L0.526479 4.98825C0.557862 4.96955 0.58336 4.94241 0.600068 4.90992C0.616776 4.87743 0.624021 4.84091 0.620979 4.8045C0.604469 4.60184 0.604469 4.39816 0.620979 4.1955C0.624021 4.15909 0.616776 4.12257 0.600068 4.09008C0.58336 4.05759 0.557862 4.03045 0.526479 4.01175L0.374979 3.924C0.202725 3.82454 0.0770335 3.66073 0.0255551 3.4686C-0.0259233 3.27647 0.00102763 3.07176 0.100479 2.8995L0.850479 1.6005C0.949939 1.42825 1.11375 1.30255 1.30588 1.25108C1.49801 1.1996 1.70272 1.22655 1.87498 1.326L2.03248 1.416C2.09623 1.4535 2.17648 1.449 2.23798 1.407C2.40298 1.2935 2.57723 1.1935 2.76073 1.107C2.79394 1.0915 2.8221 1.06695 2.842 1.03618C2.8619 1.0054 2.87272 0.969644 2.87323 0.933L2.87248 0.75Z" fill="#E05846"/>
<path d="M6.76425 2.25C6.56534 2.25 6.37457 2.32902 6.23392 2.46967C6.09327 2.61032 6.01425 2.80109 6.01425 3V3.183C6.01425 3.258 5.96925 3.3255 5.90175 3.357C5.71973 3.44281 5.54492 3.54314 5.379 3.657C5.34906 3.67762 5.31395 3.68946 5.27764 3.69118C5.24133 3.6929 5.20526 3.68444 5.1735 3.66675L5.016 3.576C4.84374 3.47655 4.63903 3.4496 4.4469 3.50108C4.25477 3.55255 4.09096 3.67825 3.9915 3.8505L3.2415 5.1495C3.14205 5.32176 3.1151 5.52647 3.16658 5.7186C3.21805 5.91073 3.34375 6.07454 3.516 6.174L3.6675 6.26175C3.732 6.29925 3.768 6.3705 3.762 6.4455C3.74549 6.64816 3.74549 6.85184 3.762 7.0545C3.768 7.1295 3.732 7.2015 3.6675 7.23825L3.516 7.326C3.34375 7.42546 3.21805 7.58927 3.16658 7.7814C3.1151 7.97353 3.14205 8.17824 3.2415 8.3505L3.9915 9.6495C4.09096 9.82175 4.25477 9.94745 4.4469 9.99892C4.63903 10.0504 4.84374 10.0235 5.016 9.924L5.1735 9.834C5.20519 9.8162 5.24122 9.80761 5.27753 9.8092C5.31384 9.81079 5.34899 9.8225 5.379 9.843C5.544 9.9565 5.71825 10.0565 5.90175 10.143C5.93496 10.1585 5.96312 10.183 5.98302 10.2138C6.00292 10.2446 6.01374 10.2804 6.01425 10.317V10.5C6.01425 10.6989 6.09327 10.8897 6.23392 11.0303C6.37457 11.171 6.56534 11.25 6.76425 11.25H8.26425C8.46316 11.25 8.65393 11.171 8.79458 11.0303C8.93523 10.8897 9.01425 10.6989 9.01425 10.5V10.3043C9.01425 10.2293 9.05775 10.1625 9.1245 10.131C9.302 10.0455 9.4715 9.94675 9.633 9.83475C9.66302 9.81398 9.69827 9.80206 9.73473 9.80034C9.77119 9.79861 9.80741 9.80716 9.83925 9.825L10.0117 9.924C10.184 10.0235 10.3887 10.0504 10.5808 9.99892C10.773 9.94745 10.9368 9.82175 11.0363 9.6495L11.7863 8.3505C11.8857 8.17824 11.9127 7.97353 11.8612 7.7814C11.8097 7.58927 11.684 7.42546 11.5117 7.326L11.3333 7.22325C11.302 7.20461 11.2766 7.17758 11.2599 7.14524C11.2432 7.1129 11.2359 7.07653 11.2387 7.04025C11.2537 6.84704 11.2537 6.65296 11.2387 6.45975C11.2359 6.42347 11.2432 6.3871 11.2599 6.35476C11.2766 6.32242 11.302 6.29539 11.3333 6.27675L11.5117 6.174C11.684 6.07454 11.8097 5.91073 11.8612 5.7186C11.9127 5.52647 11.8857 5.32176 11.7863 5.1495L11.0363 3.8505C10.9368 3.67825 10.773 3.55255 10.5808 3.50108C10.3887 3.4496 10.184 3.47655 10.0117 3.576L9.83925 3.675C9.80741 3.69284 9.77119 3.70139 9.73473 3.69966C9.69827 3.69794 9.66302 3.68602 9.633 3.66525C9.47152 3.55333 9.3015 3.45428 9.1245 3.369C9.0918 3.3534 9.06409 3.32899 9.04449 3.29852C9.02488 3.26806 9.01415 3.23273 9.0135 3.1965V3C9.0135 2.80109 8.93448 2.61032 8.79383 2.46967C8.65318 2.32902 8.46241 2.25 8.2635 2.25H6.7635H6.76425ZM9 6.75C9 7.14782 8.84196 7.52936 8.56066 7.81066C8.27936 8.09196 7.89782 8.25 7.5 8.25C7.10218 8.25 6.72064 8.09196 6.43934 7.81066C6.15804 7.52936 6 7.14782 6 6.75C6 6.35218 6.15804 5.97064 6.43934 5.68934C6.72064 5.40804 7.10218 5.25 7.5 5.25C7.89782 5.25 8.27936 5.40804 8.56066 5.68934C8.84196 5.97064 9 6.35218 9 6.75Z" fill="#E05846"/>
</g>
<defs>
<clipPath id="clip0_1_23">
<rect width="12" height="12" fill="white"/>
</clipPath>
</defs>
</svg>
