<svg width="12" height="8" viewBox="0 0 12 8" fill="none" xmlns="http://www.w3.org/2000/svg">
<path d="M11.9275 3.46484C10.7977 1.39824 8.56105 0 6 0C3.43895 0 1.20166 1.39922 0.0724887 3.46504C0.0248307 3.55342 0 3.65107 0 3.7501C0 3.84913 0.0248307 3.94678 0.0724887 4.03516C1.20228 6.10176 3.43895 7.5 6 7.5C8.56105 7.5 10.7983 6.10078 11.9275 4.03496C11.9752 3.94658 12 3.84893 12 3.7499C12 3.65087 11.9752 3.55322 11.9275 3.46484ZM6 6.5625C5.40665 6.5625 4.82663 6.39755 4.33329 6.08851C3.83994 5.77947 3.45542 5.34021 3.22836 4.8263C3.00129 4.31238 2.94188 3.74688 3.05764 3.20131C3.17339 2.65574 3.45912 2.1546 3.87868 1.76126C4.29823 1.36793 4.83278 1.10006 5.41473 0.991541C5.99667 0.883021 6.59987 0.938717 7.14805 1.15159C7.69623 1.36446 8.16477 1.72495 8.49441 2.18746C8.82406 2.64997 9.00001 3.19374 9.00001 3.75C9.0002 4.11939 8.92273 4.4852 8.77203 4.82651C8.62134 5.16782 8.40037 5.47794 8.12175 5.73914C7.84314 6.00034 7.51234 6.2075 7.14828 6.34878C6.78422 6.49006 6.39402 6.56268 6 6.5625ZM6 1.875C5.82149 1.87734 5.64412 1.90224 5.47271 1.94902C5.614 2.12904 5.68181 2.35056 5.66382 2.57343C5.64584 2.79629 5.54326 3.00573 5.37469 3.16377C5.20611 3.32181 4.98271 3.41798 4.74499 3.43484C4.50727 3.4517 4.27097 3.38813 4.07895 3.25566C3.96961 3.63332 3.98935 4.03361 4.13539 4.4002C4.28143 4.76678 4.54641 5.08121 4.89304 5.29921C5.23967 5.51722 5.6505 5.62782 6.0677 5.61547C6.4849 5.60311 6.88746 5.46841 7.21873 5.23033C7.54999 4.99225 7.79328 4.66278 7.91434 4.28828C8.03541 3.91378 8.02816 3.51312 7.89361 3.14269C7.75906 2.77226 7.50399 2.45071 7.1643 2.2233C6.82461 1.9959 6.41741 1.87408 6 1.875Z" fill="#E05846"/>
</svg>
