<svg width="947" height="868" viewBox="0 0 947 868" fill="none" xmlns="http://www.w3.org/2000/svg">
<path d="M724.795 846L629.355 795.337L595.389 774.062L542.943 732.577C494.273 752.924 456.366 679.51 449.696 661.518C423.691 688.566 357.03 690.432 328.388 690.432C257.623 690.432 207.079 643.116 198.464 575.266C185.75 577.701 172.641 578.285 159.355 576.786C73.2023 567.07 12.266 473.756 23.2537 368.363C30.7411 296.541 69.6992 237.654 121.023 210.497C120.465 198.784 121.698 186.503 124.979 174.194C138.507 123.475 181.475 91.5955 220.949 102.985C221.712 103.204 222.453 103.465 223.202 103.714C256.985 66.0018 309.206 41.7914 367.833 41.7559C391.716 41.7411 414.543 45.7401 435.496 53.0301C452.313 35.5381 473.033 24.4209 496.07 22.3503C524.602 19.7879 551.923 31.5273 574.217 53.116C574.69 52.7369 575.191 52.3962 575.673 52.0289C575.655 52.0289 575.638 52.0289 575.621 52.0289C575.621 52.0289 581.884 45.2928 597.292 39.9489C610.396 34.9072 624.906 32.801 640.152 33.5209C640.231 33.5209 640.308 33.5209 640.388 33.5209C688.01 33.5209 727.856 61.0222 755.189 87.5046C759.902 91.9184 764.525 96.5542 769.002 101.475C778.244 111.626 786.417 122.296 793.515 133.256C794.605 134.903 795.164 135.813 795.164 135.813C845.599 135.813 881.994 175.142 898.564 222.683C905.974 241.911 909.17 261.767 908.56 280.933C908.56 280.933 986.16 309.035 986.16 384.125C991.375 411.549 988.641 439.051 979.126 462.968C979.741 464.31 980.345 465.658 980.928 467.026C1009.85 534.9 989.074 610.307 934.529 635.45C931.535 636.83 928.499 638.009 925.435 639.034C925.435 719.222 837.152 717.107 837.152 717.107L930.932 846.003L832.937 845.321C832.937 845.321 651.985 652.335 651.985 507.792C651.985 497.759 665.251 475.711 684.159 475.711C712.651 475.711 713.431 504.735 722.713 504.735C748.302 511.818 760.452 486.233 768.919 455.796C773.325 438.571 780.374 400.577 752.913 392.976C718.088 383.337 715.496 397.953 701.393 393.732C696.024 392.245 691.595 375.078 695.913 358.2C710.595 300.815 748.678 244.438 748.678 244.438C719.811 222.639 701.35 206.868 643.182 190.768C622.289 184.986 603.629 189.506 601.037 199.631C596.252 218.326 610.131 232.503 607.408 243.149C602.225 263.402 598.77 276.907 544.769 261.957C508.069 251.799 494.965 235.104 499.816 216.149C505.064 195.635 521.771 193.031 526.356 175.113C529.478 162.908 516.479 156.252 480.278 146.231C452.316 138.491 407.938 135.297 383.924 144.584C383.924 144.584 397.58 229.787 388.865 263.846C382.788 287.607 364.375 300.445 352.391 297.127C324.583 289.431 332.121 275.992 315.144 271.294C291.178 264.661 274.21 276.646 264.122 316.071C256.714 345.024 254.866 375.235 275.836 381.041C304.963 389.105 315.463 374.631 325.258 377.345C336.074 380.339 342.662 395.693 339.162 409.369C326.892 457.319 307.828 494.415 282.065 530.134C322.561 556.708 351.653 573.865 390.557 584.633C406.742 589.112 424.206 584.772 426.265 576.721C432.354 552.919 412.256 556.252 420.515 523.966C424.702 507.609 451.365 499.694 485.026 509.013C513.611 516.925 534.131 533.543 528.84 554.228C524.921 569.549 504.256 578.566 501.245 590.338" fill="url(#paint0_linear_5702_27710)" fill-opacity="0.36"/>
<path d="M724.795 846L629.355 795.337L595.389 774.062L542.943 732.577C494.273 752.924 456.366 679.51 449.696 661.518C423.691 688.566 357.03 690.432 328.388 690.432C257.623 690.432 207.079 643.116 198.464 575.266C185.75 577.701 172.641 578.285 159.355 576.786C73.2023 567.07 12.266 473.756 23.2537 368.363C30.7411 296.541 69.6992 237.654 121.023 210.497C120.465 198.784 121.698 186.503 124.979 174.194C138.507 123.475 181.475 91.5955 220.949 102.985C221.712 103.204 222.453 103.465 223.202 103.714C256.985 66.0018 309.206 41.7914 367.833 41.7559C391.716 41.7411 414.543 45.7401 435.496 53.0301C452.313 35.5381 473.033 24.4209 496.07 22.3503C524.602 19.7879 551.923 31.5273 574.217 53.116C574.69 52.7369 575.191 52.3962 575.673 52.0289C575.655 52.0289 575.638 52.0289 575.621 52.0289C575.621 52.0289 581.884 45.2928 597.292 39.9489C610.396 34.9072 624.906 32.801 640.152 33.5208C640.231 33.5208 640.308 33.5208 640.388 33.5208C688.01 33.5208 727.856 61.0222 755.189 87.5046C759.902 91.9184 764.525 96.5542 769.002 101.475C778.244 111.626 786.417 122.296 793.515 133.256C794.605 134.903 795.164 135.813 795.164 135.813C845.599 135.813 881.994 175.142 898.564 222.683C905.974 241.911 909.17 261.767 908.56 280.933C908.56 280.933 986.16 309.035 986.16 384.125C991.375 411.549 988.641 439.051 979.126 462.968C979.741 464.31 980.345 465.658 980.928 467.026C1009.85 534.9 989.074 610.307 934.529 635.45C931.535 636.83 928.499 638.009 925.435 639.034C925.435 719.222 837.152 717.107 837.152 717.107L930.932 846.003L832.937 845.321C832.937 845.321 651.985 652.335 651.985 507.792C651.985 497.759 665.251 475.711 684.159 475.711C712.651 475.711 713.431 504.735 722.713 504.735C748.302 511.818 760.452 486.233 768.919 455.796C773.325 438.571 780.374 400.577 752.913 392.976C718.088 383.337 715.496 397.953 701.393 393.732C696.024 392.245 691.595 375.078 695.913 358.2C710.595 300.815 748.678 244.438 748.678 244.438C719.811 222.639 701.35 206.868 643.182 190.768C622.289 184.986 603.629 189.506 601.037 199.631C596.252 218.326 610.131 232.503 607.408 243.149C602.225 263.402 598.77 276.907 544.769 261.957C508.069 251.799 494.965 235.104 499.816 216.149C505.064 195.635 521.771 193.031 526.356 175.113C529.478 162.908 516.479 156.252 480.278 146.231C452.316 138.491 407.938 135.297 383.924 144.584C383.924 144.584 397.58 229.787 388.865 263.846C382.788 287.607 364.375 300.445 352.391 297.127C324.583 289.431 332.121 275.992 315.144 271.294C291.178 264.661 274.21 276.646 264.122 316.071C256.714 345.024 254.866 375.235 275.836 381.041C304.963 389.105 315.463 374.631 325.258 377.345C336.074 380.339 342.662 395.693 339.162 409.369C326.892 457.319 307.828 494.415 282.065 530.134C322.561 556.708 351.653 573.865 390.557 584.633C406.742 589.112 424.206 584.772 426.265 576.721C432.355 552.919 412.256 556.252 420.515 523.966C424.702 507.609 451.365 499.694 485.026 509.013C513.611 516.925 534.131 533.543 528.84 554.228C524.921 569.549 504.256 578.566 501.245 590.338L570.874 670.88L639.844 751.192C668.814 783.104 724.795 831.641 724.795 846Z" stroke="#FF8773" stroke-opacity="0.1" stroke-width="44" stroke-linecap="round" stroke-linejoin="round"/>
<defs>
<linearGradient id="paint0_linear_5702_27710" x1="955.928" y1="2.47981" x2="643.259" y2="1028.01" gradientUnits="userSpaceOnUse">
<stop stop-color="#FFB9AA" stop-opacity="0.3"/>
</linearGradient>
</defs>
</svg>
