<svg width="14" height="15" viewBox="0 0 14 15" fill="none" xmlns="http://www.w3.org/2000/svg">
<path d="M2 2C1.725 2 1.5 2.225 1.5 2.5V12.5C1.5 12.775 1.725 13 2 13H12C12.275 13 12.5 12.775 12.5 12.5V2.5C12.5 2.225 12.275 2 12 2H2ZM0 2.5C0 1.39688 0.896875 0.5 2 0.5H12C13.1031 0.5 14 1.39688 14 2.5V12.5C14 13.6031 13.1031 14.5 12 14.5H2C0.896875 14.5 0 13.6031 0 12.5V2.5ZM10.5312 6.03125L6.53125 10.0312C6.2375 10.325 5.7625 10.325 5.47188 10.0312L3.47187 8.03125C3.17812 7.7375 3.17812 7.2625 3.47187 6.97188C3.76562 6.68125 4.24062 6.67813 4.53125 6.97188L6 8.44063L9.46875 4.96875C9.7625 4.675 10.2375 4.675 10.5281 4.96875C10.8187 5.2625 10.8219 5.7375 10.5281 6.02812L10.5312 6.03125Z" fill="black"/>
</svg>
