<svg width="19" height="20" viewBox="0 0 19 20" fill="none" xmlns="http://www.w3.org/2000/svg">
<g id="ep:back">
<path id="Vector" d="M3.96876 9.375H15.308C15.4584 9.375 15.6026 9.44085 15.7089 9.55806C15.8153 9.67527 15.875 9.83424 15.875 10C15.875 10.1658 15.8153 10.3247 15.7089 10.4419C15.6026 10.5592 15.4584 10.625 15.308 10.625H3.96876C3.81839 10.625 3.67418 10.5592 3.56785 10.4419C3.46153 10.3247 3.40179 10.1658 3.40179 10C3.40179 9.83424 3.46153 9.67527 3.56785 9.55806C3.67418 9.44085 3.81839 9.375 3.96876 9.375Z" fill="#F4F2F0"/>
<path id="Vector_2" d="M4.20347 10.0001L8.90587 15.1826C9.01233 15.2999 9.07214 15.4591 9.07214 15.6251C9.07214 15.791 9.01233 15.9502 8.90587 16.0676C8.79941 16.1849 8.65502 16.2508 8.50446 16.2508C8.3539 16.2508 8.20951 16.1849 8.10305 16.0676L3.00037 10.4426C2.94757 10.3845 2.90568 10.3155 2.8771 10.2396C2.84851 10.1637 2.8338 10.0823 2.8338 10.0001C2.8338 9.91785 2.84851 9.83645 2.8771 9.76052C2.90568 9.68458 2.94757 9.61561 3.00037 9.55756L8.10305 3.93256C8.20951 3.8152 8.3539 3.74927 8.50446 3.74927C8.65502 3.74927 8.79941 3.8152 8.90587 3.93256C9.01233 4.04992 9.07214 4.20909 9.07214 4.37506C9.07214 4.54103 9.01233 4.7002 8.90587 4.81756L4.20347 10.0001Z" fill="#F4F2F0"/>
</g>
</svg>
