<svg width="20" height="20" viewBox="0 0 20 20" fill="none" xmlns="http://www.w3.org/2000/svg">
<g id="ep:d-arrow-left">
<path id="Vector" d="M10.34 2.91747C10.393 2.86304 10.4564 2.81978 10.5263 2.79024C10.5963 2.7607 10.6715 2.74548 10.7475 2.74548C10.8235 2.74548 10.8987 2.7607 10.9687 2.79024C11.0386 2.81978 11.102 2.86304 11.155 2.91747C11.2637 3.02904 11.3245 3.17861 11.3245 3.33435C11.3245 3.49008 11.2637 3.63966 11.155 3.75122L5.06375 9.99872L11.155 16.2475C11.2098 16.3036 11.2531 16.37 11.2822 16.4428C11.3114 16.5157 11.326 16.5936 11.325 16.672C11.3241 16.7505 11.3077 16.828 11.2768 16.9002C11.2459 16.9723 11.2011 17.0376 11.145 17.0925C11.0915 17.1447 11.0283 17.1859 10.9588 17.2137C10.8894 17.2415 10.8152 17.2553 10.7404 17.2544C10.6657 17.2535 10.5918 17.2378 10.5231 17.2083C10.4544 17.1788 10.3922 17.136 10.34 17.0825L3.8625 10.435C3.74873 10.3183 3.68506 10.1617 3.68506 9.99872C3.68506 9.83573 3.74873 9.67919 3.8625 9.56247L10.34 2.91747ZM15.34 2.91747C15.393 2.86304 15.4564 2.81978 15.5263 2.79024C15.5963 2.7607 15.6715 2.74548 15.7475 2.74548C15.8235 2.74548 15.8987 2.7607 15.9687 2.79024C16.0386 2.81978 16.102 2.86304 16.155 2.91747C16.2637 3.02904 16.3245 3.17861 16.3245 3.33435C16.3245 3.49008 16.2637 3.63966 16.155 3.75122L10.0637 9.99872L16.155 16.2475C16.2098 16.3036 16.2531 16.37 16.2822 16.4428C16.3114 16.5157 16.326 16.5936 16.325 16.672C16.3241 16.7505 16.3077 16.828 16.2768 16.9002C16.2459 16.9723 16.2011 17.0376 16.145 17.0925C16.0915 17.1447 16.0283 17.1859 15.9588 17.2137C15.8894 17.2415 15.8152 17.2553 15.7404 17.2544C15.6657 17.2535 15.5918 17.2378 15.5231 17.2083C15.4544 17.1788 15.3922 17.136 15.34 17.0825L8.8625 10.435C8.74873 10.3183 8.68506 10.1617 8.68506 9.99872C8.68506 9.83573 8.74873 9.67919 8.8625 9.56247L15.34 2.91747Z" fill="#F4F2F0"/>
</g>
</svg>
