<svg width="20" height="20" viewBox="0 0 20 20" fill="none" xmlns="http://www.w3.org/2000/svg">
<g id="ep:d-arrow-right">
<path id="Vector" d="M8.84499 2.91624C8.89807 2.86189 8.9615 2.81872 9.03153 2.78929C9.10157 2.75986 9.17679 2.74476 9.25276 2.74487C9.32872 2.74499 9.4039 2.76032 9.47384 2.78997C9.54379 2.81962 9.60708 2.86298 9.65999 2.91749L16.1375 9.56374C16.2513 9.68045 16.3149 9.837 16.3149 9.99999C16.3149 10.163 16.2513 10.3195 16.1375 10.4362L9.65999 17.0825C9.607 17.1369 9.54364 17.1802 9.47365 17.2097C9.40366 17.2393 9.32846 17.2545 9.25249 17.2545C9.17653 17.2545 9.10133 17.2393 9.03134 17.2097C8.96135 17.1802 8.89799 17.1369 8.84499 17.0825C8.73597 16.9709 8.67493 16.821 8.67493 16.665C8.67493 16.509 8.73597 16.3591 8.84499 16.2475L14.9362 9.99999L8.84499 3.74999C8.73634 3.63842 8.67554 3.48884 8.67554 3.33311C8.67554 3.17738 8.73634 3.0278 8.84499 2.91624ZM3.84499 2.91624C3.89807 2.86189 3.9615 2.81872 4.03153 2.78929C4.10157 2.75986 4.17679 2.74476 4.25276 2.74487C4.32872 2.74499 4.4039 2.76032 4.47384 2.78997C4.54379 2.81962 4.60708 2.86298 4.65999 2.91749L11.1375 9.56374C11.2513 9.68045 11.3149 9.837 11.3149 9.99999C11.3149 10.163 11.2513 10.3195 11.1375 10.4362L4.65999 17.0825C4.607 17.1369 4.54364 17.1802 4.47365 17.2097C4.40366 17.2393 4.32846 17.2545 4.25249 17.2545C4.17653 17.2545 4.10133 17.2393 4.03134 17.2097C3.96135 17.1802 3.89799 17.1369 3.84499 17.0825C3.73596 16.9709 3.67493 16.821 3.67493 16.665C3.67493 16.509 3.73596 16.3591 3.84499 16.2475L9.93624 9.99999L3.84499 3.74999C3.73634 3.63842 3.67554 3.48884 3.67554 3.33311C3.67554 3.17738 3.73634 3.0278 3.84499 2.91624Z" fill="#F4F2F0"/>
</g>
</svg>
