<svg width="20" height="20" viewBox="0 0 20 20" fill="none" xmlns="http://www.w3.org/2000/svg">
<g id="ep:notebook">
<g id="Vector">
<path d="M10.25 2.57812C10.8023 2.57812 11.25 3.02584 11.25 3.57812V7.20312C11.25 7.75541 11.6977 8.20312 12.25 8.20312H14C14.5523 8.20312 15 7.75541 15 7.20312V3.57812C15 3.02584 15.4477 2.57812 16 2.57812H16.5C17.0523 2.57812 17.5 3.02584 17.5 3.57812V16.5781C17.5 17.1304 17.0523 17.5781 16.5 17.5781H7.25C6.69772 17.5781 6.25 17.1304 6.25 16.5781V3.57812C6.25 3.02584 6.69772 2.57812 7.25 2.57812H10.25ZM2.5 3.57812C2.5 3.02584 2.94772 2.57812 3.5 2.57812H4C4.55228 2.57812 5 3.02584 5 3.57812V16.5781C5 17.1304 4.55228 17.5781 4 17.5781H3.5C2.94772 17.5781 2.5 17.1304 2.5 16.5781V3.57812Z" fill="#F4F2F0"/>
<path d="M10.25 2.57812C10.8023 2.57812 11.25 3.02584 11.25 3.57812V7.20312C11.25 7.75541 11.6977 8.20312 12.25 8.20312H14C14.5523 8.20312 15 7.75541 15 7.20312V3.57812C15 3.02584 15.4477 2.57812 16 2.57812H16.5C17.0523 2.57812 17.5 3.02584 17.5 3.57812V16.5781C17.5 17.1304 17.0523 17.5781 16.5 17.5781H7.25C6.69772 17.5781 6.25 17.1304 6.25 16.5781V3.57812C6.25 3.02584 6.69772 2.57812 7.25 2.57812H10.25ZM2.5 3.57812C2.5 3.02584 2.94772 2.57812 3.5 2.57812H4C4.55228 2.57812 5 3.02584 5 3.57812V16.5781C5 17.1304 4.55228 17.5781 4 17.5781H3.5C2.94772 17.5781 2.5 17.1304 2.5 16.5781V3.57812Z" fill="#F4F2F0"/>
</g>
</g>
</svg>
