<svg width="20" height="20" viewBox="0 0 20 20" fill="none" xmlns="http://www.w3.org/2000/svg">
<path d="M18.3818 10.8818C18.8701 10.3936 18.8701 9.60059 18.3818 9.1123L12.1318 2.8623C11.6436 2.37402 10.8506 2.37402 10.3623 2.8623C9.87402 3.35059 9.87402 4.14355 10.3623 4.63184L15.7295 9.99902L10.3662 15.3662C9.87793 15.8545 9.87793 16.6475 10.3662 17.1357C10.8545 17.624 11.6475 17.624 12.1357 17.1357L18.3857 10.8857L18.3818 10.8818ZM4.63184 17.1318L10.8818 10.8818C11.3701 10.3936 11.3701 9.60059 10.8818 9.1123L4.63184 2.8623C4.14355 2.37402 3.35059 2.37402 2.8623 2.8623C2.37402 3.35059 2.37402 4.14355 2.8623 4.63184L8.22949 9.99902L2.86621 15.3662C2.37793 15.8545 2.37793 16.6475 2.86621 17.1357C3.35449 17.624 4.14746 17.624 4.63574 17.1357L4.63184 17.1318Z" fill="#C3BCB5"/>
</svg>
