<svg width="21" height="20" viewBox="0 0 21 20" fill="none" xmlns="http://www.w3.org/2000/svg">
<g clip-path="url(#clip0_4319_156128)">
<path d="M10.5 1.875C12.6549 1.875 14.7215 2.73102 16.2452 4.25476C17.769 5.77849 18.625 7.84512 18.625 10C18.625 12.1549 17.769 14.2215 16.2452 15.7452C14.7215 17.269 12.6549 18.125 10.5 18.125C8.34512 18.125 6.27849 17.269 4.75476 15.7452C3.23102 14.2215 2.375 12.1549 2.375 10C2.375 7.84512 3.23102 5.77849 4.75476 4.25476C6.27849 2.73102 8.34512 1.875 10.5 1.875ZM10.5 20C13.1522 20 15.6957 18.9464 17.5711 17.0711C19.4464 15.1957 20.5 12.6522 20.5 10C20.5 7.34784 19.4464 4.8043 17.5711 2.92893C15.6957 1.05357 13.1522 0 10.5 0C7.84784 0 5.3043 1.05357 3.42893 2.92893C1.55357 4.8043 0.5 7.34784 0.5 10C0.5 12.6522 1.55357 15.1957 3.42893 17.0711C5.3043 18.9464 7.84784 20 10.5 20ZM5.77734 8.49219C5.60156 8.65625 5.5 8.88672 5.5 9.12891C5.5 9.60938 5.89062 10 6.37109 10H8.625V13.75C8.625 14.4414 9.18359 15 9.875 15H11.125C11.8164 15 12.375 14.4414 12.375 13.75V10H14.6289C15.1094 10 15.5 9.60938 15.5 9.12891C15.5 8.88672 15.3984 8.65625 15.2227 8.49219L11.0391 4.58984C10.8906 4.45312 10.6992 4.375 10.5 4.375C10.3008 4.375 10.1055 4.45312 9.96094 4.58984L5.77734 8.49219Z" fill="#FFFDFD"/>
</g>
<defs>
<clipPath id="clip0_4319_156128">
<rect width="20" height="20" fill="white" transform="translate(0.5)"/>
</clipPath>
</defs>
</svg>
