<svg width="20" height="20" viewBox="0 0 20 20" fill="none" xmlns="http://www.w3.org/2000/svg">
<path d="M17.0538 0H2.94615C1.32308 0 0 1.32308 0 2.94615C0 3.73077 0.307692 4.46923 0.861538 5.03077L6.92308 11.0923V18.1462C6.92308 19.1692 7.75385 20 8.77692 20C9.26923 20 9.74615 19.8 10.0923 19.4538L12.4 17.1462C12.8385 16.7077 13.0769 16.1308 13.0769 15.5154V11.0846L19.1385 5.02308C19.6923 4.46923 20 3.73077 20 2.94615C20 1.32308 18.6769 0 17.0538 0ZM18.0462 3.93846L11.9923 10C11.7 10.2923 11.5385 10.6769 11.5385 11.0923V15.5231C11.5385 15.7231 11.4538 15.9231 11.3154 16.0692L9.00769 18.3769C8.82308 18.5538 8.46154 18.4 8.46154 18.1462V11.0923C8.46154 10.6846 8.3 10.2923 8.00769 10.0077L1.95385 3.93846C1.69231 3.67692 1.53846 3.31538 1.53846 2.94615C1.53846 2.16923 2.16923 1.53846 2.94615 1.53846H17.0538C17.8308 1.53846 18.4615 2.16923 18.4615 2.94615C18.4615 3.31538 18.3077 3.67692 18.0462 3.93846Z" fill="black"/>
</svg>
