<svg width="8" height="14" viewBox="0 0 8 14" fill="none" xmlns="http://www.w3.org/2000/svg">
<path id="Union" fill-rule="evenodd" clip-rule="evenodd" d="M7 1.5C7.27614 1.5 7.5 1.27615 7.5 1C7.5 0.723862 7.27614 0.500004 7 0.500004L0.5 0.5C0.223858 0.5 0 0.723858 0 1C0 1.27614 0.223858 1.5 0.5 1.5L7 1.5ZM7 5.5C7.27614 5.5 7.5 5.27615 7.5 5C7.5 4.72386 7.27614 4.5 7 4.5L0.5 4.5C0.223858 4.5 0 4.72386 0 5C0 5.27614 0.223858 5.5 0.5 5.5L7 5.5ZM7.5 9C7.5 9.27615 7.27614 9.5 7 9.5L0.5 9.5C0.223858 9.5 0 9.27614 0 9C0 8.72386 0.223858 8.5 0.5 8.5L7 8.5C7.27614 8.5 7.5 8.72386 7.5 9ZM7 13.5C7.27614 13.5 7.5 13.2761 7.5 13C7.5 12.7239 7.27614 12.5 7 12.5L0.5 12.5C0.223858 12.5 0 12.7239 0 13C0 13.2761 0.223858 13.5 0.5 13.5L7 13.5Z" fill="#594F47"/>
</svg>
