<svg width="20" height="20" viewBox="0 0 20 20" fill="none" xmlns="http://www.w3.org/2000/svg">
<g id="home">
<path id="Subtract" d="M10.7109 2.29663C10.3193 1.90112 9.68066 1.90112 9.28906 2.29663L2.78906 8.86511C2.70117 8.9541 2.63135 9.05786 2.58252 9.17053C2.52881 9.29492 2.5 9.4303 2.5 9.56848V16.9468C2.5 17.2955 2.77979 17.5784 3.125 17.5784H7C7.55228 17.5784 8 17.1307 8 16.5784V14.0784C8 13.5261 8.44775 13.0784 9 13.0784H11C11.5522 13.0784 12 13.5261 12 14.0784V16.5784C12 17.1307 12.4477 17.5784 13 17.5784H16.875C17.2202 17.5784 17.5 17.2955 17.5 16.9468V9.56848C17.5 9.30505 17.396 9.05225 17.2109 8.86511L10.7109 2.29663Z" fill="#F4F2F0"/>
</g>
</svg>
