<svg width="13" height="14" viewBox="0 0 13 14" fill="none" xmlns="http://www.w3.org/2000/svg">
<path id="Vector" d="M10.9096 5.93408H10.2667V4.10596C10.2667 1.97822 8.43996 0.246582 6.19531 0.246582C3.95067 0.246582 2.12388 1.97822 2.12388 4.10596V5.93408H1.48103C0.771205 5.93408 0.195312 6.47998 0.195312 7.15283V12.0278C0.195312 12.7007 0.771205 13.2466 1.48103 13.2466H10.9096C11.6194 13.2466 12.1953 12.7007 12.1953 12.0278V7.15283C12.1953 6.47998 11.6194 5.93408 10.9096 5.93408ZM8.12388 5.93408H4.26674V4.10596C4.26674 3.09795 5.13192 2.27783 6.19531 2.27783C7.25871 2.27783 8.12388 3.09795 8.12388 4.10596V5.93408Z" fill="#E6DFD8"/>
</svg>
