
<svg width="20" height="20" viewBox="0 0 20 20" fill="none" xmlns="http://www.w3.org/2000/svg">
<g id="fa6-solid:arrow-right-from-bracket">
<path id="Vector" d="M19.6328 10.8828C20.1211 10.3945 20.1211 9.60156 19.6328 9.11328L14.6328 4.11328C14.1445 3.625 13.3516 3.625 12.8633 4.11328C12.375 4.60156 12.375 5.39453 12.8633 5.88281L15.7305 8.75H7.5C6.80859 8.75 6.25 9.30859 6.25 10C6.25 10.6914 6.80859 11.25 7.5 11.25H15.7305L12.8633 14.1172C12.375 14.6055 12.375 15.3984 12.8633 15.8867C13.3516 16.375 14.1445 16.375 14.6328 15.8867L19.6328 10.8867V10.8828ZM6.25 3.75C6.94141 3.75 7.5 3.19141 7.5 2.5C7.5 1.80859 6.94141 1.25 6.25 1.25H3.75C1.67969 1.25 0 2.92969 0 5V15C0 17.0703 1.67969 18.75 3.75 18.75H6.25C6.94141 18.75 7.5 18.1914 7.5 17.5C7.5 16.8086 6.94141 16.25 6.25 16.25H3.75C3.05859 16.25 2.5 15.6914 2.5 15V5C2.5 4.30859 3.05859 3.75 3.75 3.75H6.25Z" fill="#F1EDEA"/>
</g>
</svg>
