<svg width="20" height="20" viewBox="0 0 20 20" fill="none" xmlns="http://www.w3.org/2000/svg">
<g id="ep:user-filled">
<path id="Vector" d="M5.625 6.25C5.625 7.41032 6.08594 8.52312 6.90641 9.34359C7.72688 10.1641 8.83968 10.625 10 10.625C11.1603 10.625 12.2731 10.1641 13.0936 9.34359C13.9141 8.52312 14.375 7.41032 14.375 6.25C14.375 5.08968 13.9141 3.97688 13.0936 3.15641C12.2731 2.33594 11.1603 1.875 10 1.875C8.83968 1.875 7.72688 2.33594 6.90641 3.15641C6.08594 3.97688 5.625 5.08968 5.625 6.25ZM16.25 18.125H3.125C2.95924 18.125 2.80027 18.0592 2.68306 17.9419C2.56585 17.8247 2.5 17.6658 2.5 17.5V15.625C2.5 14.7962 2.82924 14.0013 3.41529 13.4153C4.00134 12.8292 4.7962 12.5 5.625 12.5H14.375C15.2038 12.5 15.9987 12.8292 16.5847 13.4153C17.1708 14.0013 17.5 14.7962 17.5 15.625V17.5C17.5 17.6658 17.4342 17.8247 17.3169 17.9419C17.1997 18.0592 17.0408 18.125 16.875 18.125H16.25Z" fill="#F4F2F0"/>
</g>
</svg>
