<svg width="22" height="20" viewBox="0 0 22 20" fill="none" xmlns="http://www.w3.org/2000/svg">
<path d="M10.7627 1.15918C10.8375 0.928848 11.1625 0.928857 11.2373 1.15918L12.9805 6.52344C13.2147 7.24448 13.8874 7.73242 14.6455 7.73242H20.2861C20.5283 7.73249 20.6285 8.04223 20.4326 8.18457L15.8691 11.501C15.2561 11.9466 14.9993 12.7362 15.2334 13.457L16.9766 18.8223C17.0512 19.0525 16.7877 19.2439 16.5918 19.1016L12.0283 15.7861C11.415 15.3406 10.585 15.3406 9.97168 15.7861L5.4082 19.1016C5.21233 19.2439 4.94883 19.0525 5.02344 18.8223L6.7666 13.457C7.00069 12.7362 6.74387 11.9466 6.13086 11.501L1.56738 8.18457C1.37147 8.04223 1.47175 7.73249 1.71387 7.73242H7.35449C8.11264 7.73242 8.78525 7.24448 9.01953 6.52344L10.7627 1.15918Z" fill="#FFFDFD" stroke="#FF8773" stroke-width="1.5"/>
</svg>
