<svg width="14" height="13" viewBox="0 0 14 13" fill="none" xmlns="http://www.w3.org/2000/svg">
<path d="M13.7928 10.4481L8.59443 0.929007C8.12705 0.0761193 7.03473 -0.248305 6.15423 0.20442C5.83564 0.368329 5.57537 0.620408 5.40616 0.929007L0.207742 10.4481C-0.254975 11.2982 0.0811218 12.3511 0.959293 12.7993C1.21895 12.9322 1.50895 13.0011 1.80245 13H12.1981C13.1901 13.0028 13.9971 12.2262 14 11.2648C14.0012 10.98 13.93 10.6996 13.7928 10.4481ZM7.00031 11.3044C6.51717 11.3044 6.12505 10.9246 6.12505 10.4566C6.12505 9.9886 6.51717 9.60879 7.00031 9.60879C7.48344 9.60879 7.87556 9.9886 7.87556 10.4566C7.87556 10.9246 7.48344 11.3044 7.00031 11.3044ZM7.30956 8.47839H6.69047C6.53642 8.47839 6.40864 8.36252 6.3993 8.21331L6.14372 4.2569C6.13322 4.09412 6.26684 3.95678 6.43489 3.95678H7.56455C7.7326 3.95678 7.86622 4.09412 7.85572 4.2569L7.60014 8.21331C7.59081 8.36252 7.4636 8.47839 7.30956 8.47839Z" fill="#BA3B2A"/>
</svg>
